Coordinates
version=1
nRows=9
nColumns=63
inDegrees=yes

Units are S.I. units (second, meters, Newtons, ...)
If the header above contains a line with 'inDegrees', this indicates whether rotational values are in degrees (yes) or radians (no).

endheader
time	pelvis_tilt	pelvis_list	pelvis_rotation	pelvis_tx	pelvis_ty	pelvis_tz	hip_flexion_r	hip_adduction_r	hip_rotation_r	knee_angle_r	knee_angle_r_beta	ankle_angle_r	subtalar_angle_r	mtp_angle_r	hip_flexion_l	hip_adduction_l	hip_rotation_l	knee_angle_l	knee_angle_l_beta	ankle_angle_l	subtalar_angle_l	mtp_angle_l	L5_S1_Flex_Ext	L5_S1_Lat_Bending	L5_S1_axial_rotation	L4_L5_Flex_Ext	L4_L5_Lat_Bending	L4_L5_axial_rotation	L3_L4_Flex_Ext	L3_L4_Lat_Bending	L3_L4_axial_rotation	L2_L3_Flex_Ext	L2_L3_Lat_Bending	L2_L3_axial_rotation	L1_L2_Flex_Ext	L1_L2_Lat_Bending	L1_L2_axial_rotation	L1_T12_Flex_Ext	L1_T12_Lat_Bending	L1_T12_axial_rotation	Abs_r3	Abs_r2	Abs_r1	Abs_t1	Abs_t2	neck_flexion	neck_bending	neck_rotation	arm_flex_r	arm_add_r	arm_rot_r	elbow_flex_r	pro_sup_r	wrist_flex_r	wrist_dev_r	arm_flex_l	arm_add_l	arm_rot_l	elbow_flex_l	pro_sup_l	wrist_flex_l	wrist_dev_l
      2.62962963	     -1.73447770	     -0.78334019	     90.52581093	      0.25327461	      0.99670220	      0.45852836	     -0.30888170	     -1.18716596	      6.56190662	      0.49953416	      0.00871852	     24.41822013	     -8.16095392	      0.00000000	      0.89104864	      1.09345054	      6.45395973	      0.99452746	      0.01735778	     24.12620688	    -10.84272479	      0.00000000	      0.00276502	     -0.23377071	      0.55311593	      0.00513492	     -0.31091505	      0.58768568	      0.00454266	     -0.56839011	      0.58768568	      0.00316014	     -0.56839011	      0.48397644	      0.00256760	     -0.47670524	      0.44940669	      0.00157993	     -0.36211083	      0.41483695	      0.01975028	     -2.64446106	      3.07626487	      0.00000000	      0.00000000	     27.86403359	     -4.03915213	     -8.77305067	      5.72426589	    -12.56564265	    113.16173927	     10.90279886	     11.53134298	     -6.57427993	     -4.49974053	      9.36142109	    -14.88524677	    111.72905078	      5.92444928	     13.39149904	    -14.68682309	      0.55111244
      2.64814815	     -2.03891288	     -0.80678617	     91.01905550	      0.25364685	      0.99555389	      0.45774805	     -0.35586787	     -1.43497989	      6.18074227	      0.50847255	      0.00887452	     25.42021778	     -7.95779542	      0.00000000	      0.90935149	      1.36880074	      6.86783684	      0.96029272	      0.01676027	     24.67324472	    -10.61083630	      0.00000000	     -0.00082810	     -0.28920140	      0.46952556	     -0.00153786	     -0.38463786	      0.49887090	     -0.00136048	     -0.70316428	      0.49887090	     -0.00094643	     -0.70316428	      0.41083486	     -0.00076897	     -0.58973949	      0.38148951	     -0.00047317	     -0.44797297	      0.35214417	     -0.00591501	     -3.27150405	      2.61136028	      0.00000000	      0.00000000	     27.82569578	     -4.35806687	     -9.45471776	      5.21255936	    -11.86094853	    113.94702345	     11.05581926	     11.25732507	     -5.52296200	     -2.84622531	      8.26248128	    -15.46563999	    113.42452127	      5.94173173	     15.32599125	    -15.98133338	     -0.68299963
      2.66666667	     -2.22347707	     -0.82700808	     91.42568868	      0.25363790	      0.99464168	      0.45672619	     -0.40204494	     -1.61226243	      4.71624343	      0.53124790	      0.00927202	     26.65746425	     -6.20335337	      0.00000000	      0.88376365	      1.55002360	      7.05643222	      0.96096227	      0.01677196	     25.28337918	    -10.20429044	      0.00000000	      0.00098921	     -0.31791878	      0.40850979	      0.00183706	     -0.42283197	      0.43404166	      0.00162517	     -0.77298771	      0.43404166	      0.00113056	     -0.77298771	      0.35744607	      0.00091858	     -0.64829997	      0.33191421	      0.00056523	     -0.49245618	      0.30638235	      0.00706580	     -3.59636077	      2.27200892	      0.00000000	      0.00000000	     27.82621121	     -4.61337820	     -9.66846448	      4.56525773	    -11.42485956	    113.83693726	     11.53370009	      8.42507555	     -4.08748089	     -1.92627712	      7.58750829	    -15.64403189	    116.85482894	      5.88492925	     20.13115171	    -17.62686446	      0.14865648
      2.68518519	     -2.34976669	     -0.90119747	     91.45598928	      0.25372537	      0.99389833	      0.45554066	     -0.35880947	     -1.75321855	      4.50615736	      0.54955371	      0.00959152	     27.55338948	     -5.78412851	      0.00000000	      0.84004854	      1.69042382	      7.09940243	      0.92962866	      0.01622508	     25.57379792	    -10.13079926	      0.00000000	      0.01861442	     -0.32719577	      0.37022358	      0.03456884	     -0.43517037	      0.39336255	      0.03058163	     -0.79554379	      0.39336255	      0.02127442	     -0.79554379	      0.32394563	      0.01728535	     -0.66721761	      0.30080666	      0.01063628	     -0.50682625	      0.27766768	      0.13296096	     -3.70130399	      2.05907246	      0.00000000	      0.00000000	     27.85969345	     -4.83672454	     -9.28176664	      4.02362827	    -11.30037452	    112.22189788	     12.39611879	      6.45056377	     -2.85794805	     -0.80895780	      6.69881953	    -15.63099241	    116.81603882	      6.03473569	     20.48814762	    -18.17475561	     -0.61471442
      2.70370370	     -2.25077267	     -0.91716278	     91.33034787	      0.25419018	      0.99346695	      0.45430958	     -0.36392069	     -1.63396126	      3.90817682	      0.56984153	      0.00994561	     28.20994378	     -4.90696458	      0.00000000	      0.73132477	      1.58489821	      6.96276055	      0.94500553	      0.01649346	     25.84832684	    -10.18728220	      0.00000000	      0.02943720	     -0.30958911	      0.36072034	      0.05466782	     -0.41175351	      0.38326536	      0.04836237	     -0.75273495	      0.38326536	      0.03364377	     -0.75273495	      0.31563030	      0.02733538	     -0.63131411	      0.29308528	      0.01682041	     -0.47955353	      0.27054026	      0.21026695	     -3.50213389	      2.00621832	      0.00000000	      0.00000000	     27.93038560	     -4.79182607	     -8.68328091	      3.21979234	    -11.22646655	    108.45534448	     13.08605313	      3.65949890	     -2.20049717	      0.06568901	      6.10675842	    -15.49059076	    114.97732951	      6.58539605	     19.53751309	    -18.13222235	     -0.44079421
      2.72222222	     -2.20703811	     -0.94256269	     91.19771091	      0.25440917	      0.99308769	      0.45294562	     -0.37452929	     -1.61229482	      2.35479855	      0.62443356	      0.01089842	     28.94051648	     -2.62220603	      0.00000000	      0.58991675	      1.54583020	      7.06133514	      0.92763857	      0.01619035	     25.97248242	    -10.38964857	      0.00000000	      0.04415450	     -0.29463522	      0.32468259	      0.08199932	     -0.39186485	      0.34497525	      0.07254143	     -0.71637608	      0.34497525	      0.05046418	     -0.71637608	      0.28409727	      0.04100187	     -0.60082015	      0.26380460	      0.02522988	     -0.45638996	      0.24351194	      0.31539117	     -3.33297257	      1.80578715	      0.00000000	      0.00000000	     27.98472407	     -4.85585057	     -8.12176808	      2.38030150	    -11.38850187	    102.28091072	     13.98087737	      4.43996209	     -2.81963679	      1.10437544	      5.12828918	    -15.27286425	    108.71491344	      7.13834458	     16.77029508	    -17.50186646	     -1.70299208
      2.74074074	     -2.06740965	     -0.97172742	     91.11039889	      0.25451448	      0.99275617	      0.45172383	     -0.40784369	     -1.46396401	      2.09894046	      0.66201578	      0.01155436	     29.07000062	     -2.37635132	      0.00000000	      0.46667078	      1.40651298	      7.10164380	      0.89665711	      0.01564962	     26.02991343	    -10.53489878	      0.00000000	      0.06093332	     -0.26574217	      0.26725703	      0.11315927	     -0.35343708	      0.28396059	      0.10010735	     -0.64612551	      0.28396059	      0.06964069	     -0.64612551	      0.23384990	      0.05658268	     -0.54190143	      0.21714633	      0.03481730	     -0.41163462	      0.20044277	      0.43524062	     -3.00612856	      1.48640340	      0.00000000	      0.00000000	     28.02777065	     -4.98524794	     -7.30449199	      2.23105068	    -11.40291167	    102.18861100	     13.95159676	      4.71033594	     -2.83745780	      1.33665172	      4.67173410	    -14.83395151	    107.44691372	      7.33126663	     16.28453139	    -17.73324878	     -0.16794941
      2.75925926	     -2.00854796	     -0.98112410	     91.15127513	      0.25441733	      0.99262681	      0.45069467	     -0.48315043	     -1.40413023	      1.89949506	      0.70048186	      0.01222571	     29.07321922	     -2.31725666	      0.00000000	      0.35756169	      1.34789646	      7.16806952	      0.87380396	      0.01525076	     25.88279564	    -10.56324614	      0.00000000	      0.07103807	     -0.24506250	      0.22898615	      0.13192479	     -0.32593313	      0.24329779	      0.11670844	     -0.59584496	      0.24329779	      0.08118941	     -0.59584496	      0.20036288	      0.06596595	     -0.49973145	      0.18605125	      0.04059115	     -0.37960181	      0.17173961	      0.50741781	     -2.77219602	      1.27355228	      0.00000000	      0.00000000	     28.06228208	     -5.34433188	     -6.70847546	      2.15888629	    -11.30916015	    102.65850557	     13.43847321	      5.24492662	     -3.35504797	      1.25764248	      4.43438868	    -14.34340574	    106.38625536	      7.24762209	     15.70814360	    -18.06099239	      0.86520524
      2.77777778	     -1.92719596	     -0.98771306	     91.27069147	      0.25403559	      0.99270422	      0.44982361	     -0.55418107	     -1.33149017	      1.25041272	      0.75369358	      0.01315443	     28.97045806	     -1.70110225	      0.00000000	      0.27840833	      1.27384561	      7.55473845	      0.84390704	      0.01472896	     25.67769164	    -10.89007247	      0.00000000	      0.08360357	     -0.22238975	      0.19101460	      0.15526019	     -0.29577837	      0.20295302	      0.13735231	     -0.54071844	      0.20295302	      0.09555052	     -0.54071844	      0.16713778	      0.07763428	     -0.45349718	      0.15519936	      0.04777108	     -0.34448173	      0.14326095	      0.59717195	     -2.51571736	      1.06236592	      0.00000000	      0.00000000	     28.07766251	     -5.28545482	     -5.91900155	      2.77500487	    -11.43307709	    106.80919376	     12.88742061	      7.01826035	     -3.67120097	      0.60121046	      4.05457431	    -13.91526834	     99.75629865	      7.55437445	     13.73905501	    -18.42701929	      0.02033144
